<svg width="94" height="17" viewBox="0 0 94 17" fill="none" xmlns="http://www.w3.org/2000/svg">
<path d="M3.82812 11.8008L2.89062 14.623C2.83203 14.8249 2.91341 14.9714 3.13477 15.0625C3.35612 15.1536 3.73372 15.2285 4.26758 15.2871V16H0V15.2871C0.442708 15.209 0.78125 15.1276 1.01562 15.043C1.25651 14.9583 1.40951 14.8184 1.47461 14.623L4.88281 4.21289C5.1888 3.94596 5.54036 3.72461 5.9375 3.54883C6.34115 3.37305 6.71224 3.23633 7.05078 3.13867L11.1523 14.623C11.2174 14.8053 11.3281 14.9486 11.4844 15.0527C11.6471 15.1569 11.9401 15.235 12.3633 15.2871V16H7.50977V15.2871C8.01107 15.2546 8.35286 15.1895 8.53516 15.0918C8.71745 14.9941 8.77279 14.8379 8.70117 14.623L7.70508 11.8008H3.82812ZM7.29492 10.6289L5.68359 6.08789L4.21875 10.6289H7.29492ZM21.123 7.05469C21.1816 7.09375 21.1979 7.25 21.1719 7.52344C21.1458 7.79688 21.0938 8.1224 21.0156 8.5C20.9375 8.87109 20.8496 9.22917 20.752 9.57422C20.6543 9.91276 20.5664 10.1699 20.4883 10.3457H19.7754C19.7298 9.81836 19.6159 9.36914 19.4336 8.99805C19.2513 8.62044 19.0039 8.43164 18.6914 8.43164C18.5221 8.43164 18.3301 8.48047 18.1152 8.57812C17.9004 8.66927 17.6725 8.85807 17.4316 9.14453C17.1908 9.43099 16.9401 9.85742 16.6797 10.4238V14.6914C16.6797 14.7891 16.8132 14.89 17.0801 14.9941C17.3535 15.0983 17.7962 15.196 18.4082 15.2871V16H13.0469V15.2871C13.9062 15.0918 14.3359 14.8932 14.3359 14.6914V9.51562C14.3359 9.08594 14.3132 8.78646 14.2676 8.61719C14.222 8.44792 14.1699 8.33398 14.1113 8.27539C14.0267 8.19076 13.916 8.13216 13.7793 8.09961C13.6491 8.06055 13.4049 8.03125 13.0469 8.01172V7.32812C13.5221 7.26302 13.9193 7.20117 14.2383 7.14258C14.5638 7.07747 14.8665 7.00586 15.1465 6.92773C15.4329 6.8431 15.7585 6.74219 16.123 6.625L16.5332 7.03516L16.6602 8.45117C17.0117 7.94987 17.4447 7.52018 17.959 7.16211C18.4798 6.80404 19.0202 6.625 19.5801 6.625C20.1139 6.625 20.6283 6.76823 21.123 7.05469ZM30.166 1.80078C30.166 1.94401 30.0553 2.13607 29.834 2.37695C29.6191 2.61784 29.3848 2.8457 29.1309 3.06055C28.877 3.26888 28.6849 3.4056 28.5547 3.4707C28.2487 3.08659 27.946 2.8099 27.6465 2.64062C27.3535 2.46484 27.1029 2.37695 26.8945 2.37695C26.6732 2.37695 26.4648 2.47786 26.2695 2.67969C26.0742 2.875 25.9147 3.23958 25.791 3.77344C25.6738 4.30729 25.6152 5.07552 25.6152 6.07812V6.91797H28.0469L28.4082 7.26953C28.2845 7.49089 28.1217 7.72526 27.9199 7.97266C27.7246 8.21354 27.5684 8.38281 27.4512 8.48047C27.2949 8.40234 27.0801 8.32747 26.8066 8.25586C26.5332 8.17773 26.1361 8.13867 25.6152 8.13867V14.7109C25.6152 14.7891 25.752 14.8704 26.0254 14.9551C26.3053 15.0332 26.8262 15.1439 27.5879 15.2871V16H21.9824V15.2871C22.4251 15.209 22.7507 15.1146 22.959 15.0039C23.1673 14.8867 23.2715 14.7891 23.2715 14.7109V8.13867H22.1094L21.8359 7.78711L22.5977 6.91797H23.2715V6.61523C23.2715 5.54102 23.4147 4.66211 23.7012 3.97852C23.9941 3.28841 24.401 2.69596 24.9219 2.20117C25.4036 1.73893 25.9049 1.40039 26.4258 1.18555C26.9531 0.970703 27.4154 0.863281 27.8125 0.863281C28.2031 0.863281 28.5775 0.92513 28.9355 1.04883C29.2936 1.17253 29.5866 1.30924 29.8145 1.45898C30.0488 1.60872 30.166 1.72266 30.166 1.80078ZM32.8809 3.68555C32.8809 4.12174 32.7246 4.47982 32.4121 4.75977C32.0996 5.0332 31.709 5.16992 31.2402 5.16992C30.8757 5.16992 30.5599 5.08203 30.293 4.90625C30.0326 4.73047 29.9023 4.45703 29.9023 4.08594C29.9023 3.64323 30.0586 3.28841 30.3711 3.02148C30.6901 2.74805 31.0775 2.61133 31.5332 2.61133C31.8848 2.61133 32.1973 2.69596 32.4707 2.86523C32.7441 3.03451 32.8809 3.30794 32.8809 3.68555ZM28.877 16V15.2871C29.3132 15.196 29.6354 15.0951 29.8438 14.9844C30.0586 14.8737 30.166 14.776 30.166 14.6914V9.67188C30.166 9.22917 30.1465 8.89714 30.1074 8.67578C30.0749 8.45443 29.9674 8.30143 29.7852 8.2168C29.6029 8.12565 29.3001 8.05729 28.877 8.01172V7.32812C29.4303 7.25 29.9577 7.1556 30.459 7.04492C30.9668 6.92773 31.4421 6.78776 31.8848 6.625H32.5098V14.6914C32.5098 14.7695 32.6074 14.8672 32.8027 14.9844C32.998 15.0951 33.3333 15.196 33.8086 15.2871V16H28.877ZM40.752 16V15.2871C41.2207 15.1634 41.5527 15.056 41.748 14.9648C41.9434 14.8672 42.041 14.776 42.041 14.6914V10.2578C42.041 9.54167 41.9661 9.05339 41.8164 8.79297C41.6667 8.53255 41.3997 8.40234 41.0156 8.40234C40.7031 8.40234 40.3418 8.49674 39.9316 8.68555C39.528 8.86784 39.0104 9.22591 38.3789 9.75977V14.6914C38.3789 14.9062 38.8118 15.1048 39.6777 15.2871V16H34.7461V15.2871C35.6055 15.0592 36.0352 14.8607 36.0352 14.6914V9.27148C36.0352 8.93294 36.0156 8.68555 35.9766 8.5293C35.9375 8.36654 35.8268 8.2526 35.6445 8.1875C35.4688 8.1224 35.1693 8.0638 34.7461 8.01172V7.32812C35.3646 7.26302 35.9115 7.17513 36.3867 7.06445C36.8685 6.95378 37.347 6.80729 37.8223 6.625L38.2324 7.03516L38.3398 8.44141C39.0951 7.79688 39.8047 7.33464 40.4688 7.05469C41.1328 6.76823 41.7188 6.625 42.2266 6.625C42.7865 6.625 43.2845 6.8138 43.7207 7.19141C44.1634 7.56901 44.3848 8.21354 44.3848 9.125V14.6914C44.3848 14.776 44.4727 14.8639 44.6484 14.9551C44.8242 15.0462 45.1693 15.1569 45.6836 15.2871V16H40.752ZM62.2363 4.4082C61.7936 4.49284 61.4648 4.58073 61.25 4.67188C61.0352 4.75651 60.8822 4.88346 60.791 5.05273L57.4414 11.293H55.4199C55.1139 10.5703 54.7461 9.81185 54.3164 9.01758C53.8867 8.2168 53.4538 7.46484 53.0176 6.76172C52.5879 6.05859 52.2103 5.48893 51.8848 5.05273C51.7676 4.90951 51.6178 4.79557 51.4355 4.71094C51.2533 4.6263 50.8919 4.58398 50.3516 4.58398L50.3125 3.87109C50.5664 3.83854 50.8594 3.80273 51.1914 3.76367C51.5299 3.7181 51.8522 3.67904 52.1582 3.64648C52.4707 3.61393 52.7148 3.59766 52.8906 3.59766C53.0664 3.59766 53.2454 3.63672 53.4277 3.71484C53.6165 3.79297 53.7663 3.90365 53.877 4.04688C54.196 4.47656 54.5345 4.98763 54.8926 5.58008C55.2572 6.17253 55.6152 6.79753 55.9668 7.45508C56.3249 8.10612 56.6536 8.74414 56.9531 9.36914L59.2383 5.05273C59.3359 4.88346 59.3034 4.75 59.1406 4.65234C58.9844 4.55469 58.6556 4.47331 58.1543 4.4082V3.69531H62.2363V4.4082ZM53.6816 16V15.2871C54.2741 15.1634 54.6777 15.0397 54.8926 14.916C55.1074 14.7858 55.2148 14.6751 55.2148 14.584V9.7793H57.6562V14.584C57.6562 14.6686 57.7604 14.776 57.9688 14.9062C58.1771 15.0365 58.5872 15.1634 59.1992 15.2871V16H53.6816ZM71.25 11.2637C71.25 11.9147 71.123 12.5397 70.8691 13.1387C70.6152 13.7376 70.2669 14.2747 69.8242 14.75C69.3815 15.2253 68.8704 15.6029 68.291 15.8828C67.7116 16.1562 67.0996 16.293 66.4551 16.293C65.5566 16.293 64.7754 16.0911 64.1113 15.6875C63.4473 15.2839 62.9329 14.7337 62.5684 14.0371C62.2038 13.3405 62.0215 12.5495 62.0215 11.6641C62.0215 11.0195 62.1387 10.3978 62.373 9.79883C62.6074 9.19336 62.9395 8.65299 63.3691 8.17773C63.7988 7.69596 64.3066 7.31836 64.8926 7.04492C65.485 6.76497 66.1328 6.625 66.8359 6.625C67.7214 6.625 68.4961 6.82682 69.1602 7.23047C69.8242 7.63411 70.3385 8.18424 70.7031 8.88086C71.0677 9.57747 71.25 10.3717 71.25 11.2637ZM68.7891 11.7031C68.7891 11.013 68.6947 10.3783 68.5059 9.79883C68.3171 9.21289 68.0534 8.74089 67.7148 8.38281C67.3828 8.02474 66.9954 7.8457 66.5527 7.8457C66.0124 7.8457 65.5924 8.00195 65.293 8.31445C64.9935 8.62044 64.7852 9.04036 64.668 9.57422C64.5508 10.1081 64.4922 10.7103 64.4922 11.3809C64.4922 12.0645 64.5931 12.6862 64.7949 13.2461C65.0033 13.806 65.2767 14.252 65.6152 14.584C65.9538 14.9095 66.3249 15.0723 66.7285 15.0723C67.5033 15.0723 68.0404 14.7793 68.3398 14.1934C68.6393 13.6074 68.7891 12.7773 68.7891 11.7031ZM81.7578 11.2637C81.7578 11.9147 81.6309 12.5397 81.377 13.1387C81.123 13.7376 80.7747 14.2747 80.332 14.75C79.8893 15.2253 79.3783 15.6029 78.7988 15.8828C78.2194 16.1562 77.6074 16.293 76.9629 16.293C76.0645 16.293 75.2832 16.0911 74.6191 15.6875C73.9551 15.2839 73.4408 14.7337 73.0762 14.0371C72.7116 13.3405 72.5293 12.5495 72.5293 11.6641C72.5293 11.0195 72.6465 10.3978 72.8809 9.79883C73.1152 9.19336 73.4473 8.65299 73.877 8.17773C74.3066 7.69596 74.8145 7.31836 75.4004 7.04492C75.9928 6.76497 76.6406 6.625 77.3438 6.625C78.2292 6.625 79.0039 6.82682 79.668 7.23047C80.332 7.63411 80.8464 8.18424 81.2109 8.88086C81.5755 9.57747 81.7578 10.3717 81.7578 11.2637ZM79.2969 11.7031C79.2969 11.013 79.2025 10.3783 79.0137 9.79883C78.8249 9.21289 78.5612 8.74089 78.2227 8.38281C77.8906 8.02474 77.5033 7.8457 77.0605 7.8457C76.5202 7.8457 76.1003 8.00195 75.8008 8.31445C75.5013 8.62044 75.293 9.04036 75.1758 9.57422C75.0586 10.1081 75 10.7103 75 11.3809C75 12.0645 75.1009 12.6862 75.3027 13.2461C75.5111 13.806 75.7845 14.252 76.123 14.584C76.4616 14.9095 76.8327 15.0723 77.2363 15.0723C78.0111 15.0723 78.5482 14.7793 78.8477 14.1934C79.1471 13.6074 79.2969 12.7773 79.2969 11.7031ZM88.877 16V15.2871C89.3457 15.1634 89.6777 15.056 89.873 14.9648C90.0684 14.8672 90.166 14.776 90.166 14.6914V10.2578C90.166 9.54167 90.0911 9.05339 89.9414 8.79297C89.7917 8.53255 89.5247 8.40234 89.1406 8.40234C88.8281 8.40234 88.4668 8.49674 88.0566 8.68555C87.653 8.86784 87.1354 9.22591 86.5039 9.75977V14.6914C86.5039 14.9062 86.9368 15.1048 87.8027 15.2871V16H82.8711V15.2871C83.7305 15.0592 84.1602 14.8607 84.1602 14.6914V9.27148C84.1602 8.93294 84.1406 8.68555 84.1016 8.5293C84.0625 8.36654 83.9518 8.2526 83.7695 8.1875C83.5938 8.1224 83.2943 8.0638 82.8711 8.01172V7.32812C83.4896 7.26302 84.0365 7.17513 84.5117 7.06445C84.9935 6.95378 85.472 6.80729 85.9473 6.625L86.3574 7.03516L86.4648 8.44141C87.2201 7.79688 87.9297 7.33464 88.5938 7.05469C89.2578 6.76823 89.8438 6.625 90.3516 6.625C90.9115 6.625 91.4095 6.8138 91.8457 7.19141C92.2884 7.56901 92.5098 8.21354 92.5098 9.125V14.6914C92.5098 14.776 92.5977 14.8639 92.7734 14.9551C92.9492 15.0462 93.2943 15.1569 93.8086 15.2871V16H88.877Z" fill="black"/>
</svg>
