<svg width="63" height="40" viewBox="0 0 63 40" fill="none" xmlns="http://www.w3.org/2000/svg">
<path d="M8.72 11.14C7.76667 11.14 7.10667 10.9333 6.74 10.52C6.48667 10.2267 6.36 9.81667 6.36 9.29C6.36 9.06333 6.38333 8.82 6.43 8.56L6.84 6.26C7.14 4.57333 8.22333 3.73 10.09 3.73C10.8633 3.73 11.45 3.89667 11.85 4.23C12.25 4.55667 12.45 5.00667 12.45 5.58C12.45 5.84667 12.41 6.11333 12.33 6.38C12.2567 6.64 12.1833 6.83333 12.11 6.96L12 7.16H10.23C10.45 6.90667 10.56 6.54667 10.56 6.08C10.56 5.83333 10.4967 5.64 10.37 5.5C10.2433 5.35333 10.0567 5.28 9.81 5.28C9.13667 5.28 8.73667 5.65333 8.61 6.4L8.26 8.42C8.22667 8.59333 8.21 8.76333 8.21 8.93C8.21 9.37 8.47333 9.59 9 9.59C9.63333 9.59 10.0133 9.23333 10.14 8.52H11.94L11.89 8.81C11.6233 10.3633 10.5667 11.14 8.72 11.14ZM16.1465 11L16.2065 9.43H14.5365L14.0465 11H12.1365L14.7065 3.8H18.0065L18.0465 11H16.1465ZM15.7365 5.55L14.9465 8.09H16.2565L16.3665 5.55H15.7365ZM22.3727 8.81H21.1827L20.7927 11H18.9927L20.2627 3.8H23.3127C24.0661 3.8 24.6027 3.97333 24.9227 4.32C25.1561 4.58667 25.2727 4.92667 25.2727 5.34C25.2727 5.48 25.2594 5.62667 25.2327 5.78L25.0327 6.91C24.9327 7.46333 24.6394 7.92 24.1527 8.28C23.6661 8.63333 23.0727 8.81 22.3727 8.81ZM22.6827 5.36H21.7827L21.4527 7.25H22.3427C22.8894 7.25 23.2061 7.00667 23.2927 6.52L23.3627 6.11C23.3761 6.05 23.3827 5.97 23.3827 5.87C23.3827 5.77 23.3327 5.66 23.2327 5.54C23.1327 5.42 22.9494 5.36 22.6827 5.36ZM32.4997 5.36H30.0397L29.0497 11H27.2397L28.2297 5.36H25.7597L26.0397 3.8H32.7797L32.4997 5.36ZM37.2926 10.48C36.7659 10.92 36.0192 11.14 35.0526 11.14C34.0859 11.14 33.4159 10.9167 33.0426 10.47C32.7759 10.1633 32.6426 9.74 32.6426 9.2C32.6426 8.96 32.6692 8.69667 32.7226 8.41L33.5326 3.8H35.3326L34.5226 8.37C34.4959 8.53667 34.4826 8.71 34.4826 8.89C34.4826 9.35667 34.7626 9.59 35.3226 9.59C35.6559 9.59 35.9226 9.50333 36.1226 9.33C36.3226 9.15667 36.4626 8.83667 36.5426 8.37L37.3526 3.8H39.1526L38.3426 8.41C38.1759 9.34333 37.8259 10.0333 37.2926 10.48ZM43.4166 3.8C44.1766 3.8 44.7166 3.96667 45.0366 4.3C45.2766 4.55333 45.3966 4.87333 45.3966 5.26C45.3966 5.39333 45.3833 5.53333 45.3566 5.68L45.2166 6.46C45.1366 6.89333 44.9966 7.24333 44.7966 7.51C44.6033 7.77667 44.3866 7.96667 44.1466 8.08L45.0566 11H43.0366L42.1966 8.31H41.5766L41.1666 11H39.2466L40.5166 3.8H43.4166ZM42.7866 5.36H42.0366L41.7766 7.1H42.4766C42.83 7.1 43.0833 7.01667 43.2366 6.85C43.39 6.67667 43.4666 6.45 43.4666 6.17C43.4666 5.63 43.24 5.36 42.7866 5.36ZM50.8291 11H45.8091L47.0791 3.8H52.0991L51.8191 5.36H48.5991L48.3691 6.71H51.0291L50.7491 8.27H48.0891L47.8891 9.44H51.1091L50.8291 11ZM56.051 3.8C56.9243 3.8 57.5477 4.02 57.921 4.46C58.1943 4.79333 58.331 5.21 58.331 5.71C58.331 5.89 58.3143 6.08 58.281 6.28L57.891 8.51C57.7577 9.26333 57.431 9.86667 56.911 10.32C56.391 10.7733 55.7177 11 54.891 11H51.981L53.251 3.8H56.051ZM55.421 5.36H54.771L54.061 9.44H55.011C55.3243 9.44 55.5677 9.35667 55.741 9.19C55.921 9.01667 56.0443 8.73667 56.111 8.35L56.401 6.71C56.4277 6.56333 56.441 6.43 56.441 6.31C56.441 5.67667 56.101 5.36 55.421 5.36Z" fill="#EF4444"/>
<path d="M14.64 20.72H9.72L7.74 32H4.12L6.1 20.72H1.16L1.72 17.6H15.2L14.64 20.72ZM20.2734 32L20.3934 28.86H17.0534L16.0734 32H12.2534L17.3934 17.6H23.9934L24.0734 32H20.2734ZM19.4534 21.1L17.8734 26.18H20.4934L20.7134 21.1H19.4534ZM34.3059 17.6C35.8259 17.6 36.9059 17.9333 37.5459 18.6C38.0259 19.1067 38.2659 19.7467 38.2659 20.52C38.2659 20.7867 38.2393 21.0667 38.1859 21.36L38.0059 22.32C37.8593 23.08 37.5726 23.6733 37.1459 24.1C36.7326 24.5267 36.3659 24.74 36.0459 24.74L36.0259 24.9C36.3993 24.9 36.7793 25.1067 37.1659 25.52C37.5526 25.9333 37.7459 26.42 37.7459 26.98C37.7459 27.2067 37.7193 27.4467 37.6659 27.7L37.5459 28.32C37.3326 29.4667 36.8193 30.3667 36.0059 31.02C35.2059 31.6733 34.0859 32 32.6459 32H25.9659L28.5059 17.6H34.3059ZM32.5059 26.12H30.6059L30.1259 28.88H32.0259C32.0526 28.88 32.0793 28.88 32.1059 28.88C32.7193 28.88 33.2059 28.74 33.5659 28.46C33.9259 28.1667 34.1059 27.8133 34.1059 27.4C34.1059 26.5467 33.5726 26.12 32.5059 26.12ZM33.0459 20.72H31.5459L31.0259 23.7H32.5059C33.7859 23.7 34.4259 23.14 34.4259 22.02C34.4259 21.6333 34.3059 21.32 34.0659 21.08C33.8393 20.84 33.4993 20.72 33.0459 20.72ZM48.2305 32H39.1105L41.6505 17.6H45.2505L43.2705 28.88H48.7905L48.2305 32ZM59.8731 32H49.8331L52.3731 17.6H62.4131L61.8531 20.72H55.4131L54.9531 23.42H60.2731L59.7131 26.54H54.3931L53.9931 28.88H60.4331L59.8731 32Z" fill="#EF4444"/>
</svg>
