<svg width="84" height="13" viewBox="0 0 84 13" fill="none" xmlns="http://www.w3.org/2000/svg">
<path d="M4.352 12.224C2.82667 12.224 1.77067 11.8933 1.184 11.232C0.778667 10.7627 0.576 10.1067 0.576 9.264C0.576 8.90133 0.613333 8.512 0.688 8.096L1.344 4.416C1.824 1.71733 3.55733 0.367999 6.544 0.367999C7.78133 0.367999 8.72 0.634666 9.36 1.168C10 1.69067 10.32 2.41067 10.32 3.328C10.32 3.75467 10.256 4.18133 10.128 4.608C10.0107 5.024 9.89333 5.33333 9.776 5.536L9.6 5.856H6.768C7.12 5.45067 7.296 4.87467 7.296 4.128C7.296 3.73333 7.19467 3.424 6.992 3.2C6.78933 2.96533 6.49067 2.848 6.096 2.848C5.01867 2.848 4.37867 3.44533 4.176 4.64L3.616 7.872C3.56267 8.14933 3.536 8.42133 3.536 8.688C3.536 9.392 3.95733 9.744 4.8 9.744C5.81333 9.744 6.42133 9.17333 6.624 8.032H9.504L9.424 8.496C8.99733 10.9813 7.30667 12.224 4.352 12.224ZM16.2344 12L16.3304 9.488H13.6584L12.8744 12H9.81837L13.9304 0.48H19.2104L19.2744 12H16.2344ZM15.5784 3.28L14.3144 7.344H16.4104L16.5864 3.28H15.5784ZM26.1964 8.496H24.2924L23.6684 12H20.7884L22.8204 0.48H27.7004C28.9057 0.48 29.7644 0.757333 30.2764 1.312C30.6497 1.73867 30.8364 2.28267 30.8364 2.944C30.8364 3.168 30.815 3.40267 30.7724 3.648L30.4524 5.456C30.2924 6.34133 29.823 7.072 29.0444 7.648C28.2657 8.21333 27.3164 8.496 26.1964 8.496ZM26.6924 2.976H25.2524L24.7244 6H26.1484C27.023 6 27.5297 5.61067 27.6684 4.832L27.7804 4.176C27.8017 4.08 27.8124 3.952 27.8124 3.792C27.8124 3.632 27.7324 3.456 27.5724 3.264C27.4124 3.072 27.119 2.976 26.6924 2.976ZM42.3995 2.976H38.4635L36.8795 12H33.9835L35.5675 2.976H31.6155L32.0635 0.48H42.8475L42.3995 2.976ZM50.0681 11.168C49.2255 11.872 48.0308 12.224 46.4841 12.224C44.9375 12.224 43.8655 11.8667 43.2681 11.152C42.8415 10.6613 42.6281 9.984 42.6281 9.12C42.6281 8.736 42.6708 8.31467 42.7561 7.856L44.0521 0.48H46.9321L45.6361 7.792C45.5935 8.05867 45.5721 8.336 45.5721 8.624C45.5721 9.37067 46.0201 9.744 46.9161 9.744C47.4495 9.744 47.8761 9.60533 48.1961 9.328C48.5161 9.05067 48.7401 8.53867 48.8681 7.792L50.1641 0.48H53.0441L51.7481 7.856C51.4815 9.34933 50.9215 10.4533 50.0681 11.168ZM59.8666 0.48C61.0826 0.48 61.9466 0.746666 62.4586 1.28C62.8426 1.68533 63.0346 2.19733 63.0346 2.816C63.0346 3.02933 63.0133 3.25333 62.9706 3.488L62.7466 4.736C62.6186 5.42933 62.3946 5.98933 62.0746 6.416C61.7653 6.84267 61.4186 7.14667 61.0346 7.328L62.4906 12H59.2586L57.9146 7.696H56.9226L56.2666 12H53.1946L55.2266 0.48H59.8666ZM58.8586 2.976H57.6586L57.2426 5.76H58.3626C58.928 5.76 59.3333 5.62667 59.5786 5.36C59.824 5.08267 59.9466 4.72 59.9466 4.272C59.9466 3.408 59.584 2.976 58.8586 2.976ZM71.7266 12H63.6946L65.7266 0.48H73.7586L73.3106 2.976H68.1586L67.7906 5.136H72.0466L71.5986 7.632H67.3426L67.0226 9.504H72.1746L71.7266 12ZM80.0816 0.48C81.479 0.48 82.4763 0.831999 83.0736 1.536C83.511 2.06933 83.7296 2.736 83.7296 3.536C83.7296 3.824 83.703 4.128 83.6496 4.448L83.0256 8.016C82.8123 9.22133 82.2896 10.1867 81.4576 10.912C80.6256 11.6373 79.5483 12 78.2256 12H73.5696L75.6016 0.48H80.0816ZM79.0736 2.976H78.0336L76.8976 9.504H78.4176C78.919 9.504 79.3083 9.37067 79.5856 9.104C79.8736 8.82667 80.071 8.37867 80.1776 7.76L80.6416 5.136C80.6843 4.90133 80.7056 4.688 80.7056 4.496C80.7056 3.48267 80.1616 2.976 79.0736 2.976Z" fill="#EF4444"/>
</svg>
